<svg width="180" height="209" viewBox="0 0 180 209" fill="none" xmlns="http://www.w3.org/2000/svg">
    <path d="M143.283 0H36.5248V18.9024H0V46.9361C0 67.076 16.385 83.4609 36.5248 83.4609H37.1649C40.5357 105.35 57.2194 122.802 78.6393 127.41V157.663H65.5399C61.4863 157.663 58.2434 160.948 58.2434 164.959V174.56H47.0641V208.823H132.787V174.56H121.607V164.959C121.607 160.906 118.322 157.663 114.311 157.663H101.211V127.41C122.674 122.802 139.315 105.308 142.686 83.4609H143.326C163.466 83.4609 179.851 67.076 179.851 46.9361V18.9024H143.326V0H143.283ZM36.5248 64.9852C26.5829 64.9852 18.4758 56.878 18.4758 46.9361V37.3782H36.5248V64.9852ZM161.29 37.3782V46.9361C161.29 56.878 153.225 64.9852 143.283 64.9852V37.3782H161.29Z" fill="white"/>
    <path d="M55.6187 48.2833L65.9681 44.6273H72.7177V84H64.9557V52.8393L57.5311 54.9204L55.6187 48.2833ZM86.2011 63.8637C86.2011 65.0636 87.9073 66.0948 91.3196 66.9572C92.5195 67.2197 93.607 67.5384 94.5819 67.9134C95.5568 68.2509 96.5318 68.7571 97.5067 69.4321C98.5192 70.0696 99.3066 70.932 99.8691 72.0194C100.432 73.1069 100.713 74.3631 100.713 75.788C100.713 78.6753 99.6254 80.9064 97.4505 82.4813C95.2756 84.0187 92.5945 84.7875 89.4072 84.7875C83.6325 84.7875 79.6953 82.5563 77.5954 78.0941L83.895 74.5505C84.7575 76.9879 86.5949 78.2066 89.4072 78.2066C91.9945 78.2066 93.2882 77.4004 93.2882 75.788C93.2882 74.588 91.5821 73.5569 88.1698 72.6944C86.8948 72.3569 85.8074 72.0194 84.9075 71.682C84.0075 71.3445 83.0326 70.857 81.9826 70.2195C80.9327 69.5446 80.1265 68.7009 79.564 67.6884C79.039 66.6385 78.7766 65.4198 78.7766 64.0324C78.7766 61.2576 79.789 59.0827 81.8139 57.5078C83.8763 55.8954 86.4261 55.0892 89.4634 55.0892C91.7508 55.0892 93.8319 55.6141 95.7068 56.6641C97.5817 57.6765 99.0629 59.1389 100.15 61.0513L93.9632 64.4261C93.0632 62.5137 91.5633 61.5575 89.4634 61.5575C88.526 61.5575 87.7385 61.7825 87.1011 62.2325C86.5011 62.645 86.2011 63.1887 86.2011 63.8637ZM120.079 55.8766V62.8512H113.723V74.5505C113.723 75.5255 113.967 76.2379 114.455 76.6879C114.942 77.1379 115.655 77.4004 116.592 77.4754C117.529 77.5129 118.692 77.4941 120.079 77.4191V84C115.167 84.5625 111.661 84.1125 109.561 82.6501C107.499 81.1502 106.468 78.4503 106.468 74.5505V62.8512H101.574V55.8766H106.468V50.1957L113.723 48.0021V55.8766H120.079Z" fill="#0D0C10"/>
</svg>
