<svg width="154" height="178" viewBox="0 0 154 178" fill="none" xmlns="http://www.w3.org/2000/svg">
    <path d="M122.291 0H31.5461V16.0671H0.5V39.8957C0.5 57.0146 14.4272 70.9418 31.5461 70.9418H32.0901C34.9554 89.5477 49.1365 104.382 67.3434 108.299V134.013H56.2089C52.7634 134.013 50.0069 136.806 50.0069 140.215V148.376H40.5045V177.5H113.369V148.376H103.866V140.215C103.866 136.77 101.073 134.013 97.6641 134.013H86.5296V108.299C104.773 104.382 118.918 89.5114 121.783 70.9418H122.327C139.446 70.9418 153.373 57.0146 153.373 39.8957V16.0671H122.327V0H122.291ZM31.5461 55.2374C23.0955 55.2374 16.2044 48.3463 16.2044 39.8957V31.7715H31.5461V55.2374ZM137.596 31.7715V39.8957C137.596 48.3463 130.741 55.2374 122.291 55.2374V31.7715H137.596Z" fill="white"/>
    <path d="M62.1566 71.2H43.2416V67.0371L52.9012 57.0946C55.0567 54.8043 56.1345 52.9182 56.1345 51.4363C56.1345 50.3316 55.7842 49.4424 55.0837 48.7688C54.4101 48.0952 53.5344 47.7584 52.4566 47.7584C50.301 47.7584 48.7248 48.8631 47.7279 51.0725L43.0396 48.3242C43.9018 46.4112 45.1547 44.9427 46.7983 43.9188C48.4688 42.868 50.328 42.3426 52.3758 42.3426C54.9355 42.3426 57.1314 43.1509 58.9636 44.7676C60.7959 46.3573 61.712 48.5128 61.712 51.2342C61.712 54.1711 60.1627 57.1889 57.0641 60.2875L51.527 65.8246H62.1566V71.2ZM76.8378 50.4259C79.0742 50.4259 80.893 51.1668 82.2941 52.6488C83.7491 54.1577 84.4766 56.2054 84.4766 58.7921V71.2H79.2628V59.4388C79.2628 58.1185 78.8991 57.0946 78.1716 56.3671C77.471 55.6396 76.501 55.2759 75.2616 55.2759C73.8874 55.2759 72.7962 55.707 71.9879 56.5692C71.2065 57.4045 70.8158 58.6439 70.8158 60.2875V71.2H65.6021V50.9917H70.8158V53.255C72.0552 51.3689 74.0626 50.4259 76.8378 50.4259ZM103.842 53.3763V42.9084H109.056V71.2H103.842V68.8154C102.306 70.7823 100.124 71.7658 97.2946 71.7658C94.5732 71.7658 92.2425 70.7419 90.3025 68.6941C88.3895 66.6194 87.433 64.0867 87.433 61.0958C87.433 58.132 88.3895 55.6127 90.3025 53.5379C92.2425 51.4632 94.5732 50.4259 97.2946 50.4259C100.124 50.4259 102.306 51.4093 103.842 53.3763ZM94.2229 65.2183C95.3276 66.2691 96.6749 66.7946 98.2646 66.7946C99.8812 66.7946 101.215 66.2691 102.266 65.2183C103.317 64.1405 103.842 62.7664 103.842 61.0958C103.842 59.4253 103.317 58.0646 102.266 57.0138C101.215 55.936 99.8812 55.3971 98.2646 55.3971C96.6479 55.3971 95.3007 55.936 94.2229 57.0138C93.1721 58.0646 92.6467 59.4253 92.6467 61.0958C92.6467 62.7664 93.1721 64.1405 94.2229 65.2183Z" fill="#0D0C10"/>
</svg>
