<svg width="126" height="146" viewBox="0 0 126 146" fill="none" xmlns="http://www.w3.org/2000/svg">
    <path d="M100.419 0H26.1738V13.1458H0.772461V32.6419C0.772461 46.6483 12.1675 58.0433 26.1738 58.0433H26.6189C28.9632 73.2663 40.5659 85.4032 55.4625 88.608V109.647H46.3525C43.5334 109.647 41.2781 111.932 41.2781 114.722V121.398H33.5034V145.227H93.1194V121.398H85.3447V114.722C85.3447 111.902 83.0598 109.647 80.2704 109.647H71.1603V88.608C86.0866 85.4032 97.6596 73.2366 100.004 58.0433H100.449C114.455 58.0433 125.85 46.6483 125.85 32.6419V13.1458H100.449V0H100.419ZM26.1738 45.1942C19.2597 45.1942 13.6215 39.5561 13.6215 32.6419V25.9948H26.1738V45.1942ZM112.942 25.9948V32.6419C112.942 39.5561 107.334 45.1942 100.419 45.1942V25.9948H112.942Z" fill="white"/>
    <path d="M59.3682 39.2403L55.0363 44.8619C56.6456 45.3248 57.9242 46.1405 58.8722 47.3089C59.8422 48.4773 60.3272 49.8662 60.3272 51.4755C60.3272 53.8564 59.5225 55.7192 57.9132 57.064C56.348 58.4087 54.397 59.0811 52.0602 59.0811C50.2304 59.0811 48.6101 58.6623 47.1992 57.8245C45.7883 56.9648 44.7632 55.7523 44.1238 54.187L48.0259 51.9384C48.577 53.7241 49.9218 54.6169 52.0602 54.6169C53.2286 54.6169 54.1324 54.3414 54.7718 53.7902C55.4331 53.2171 55.7638 52.4455 55.7638 51.4755C55.7638 50.5275 55.4331 49.767 54.7718 49.1938C54.1324 48.6206 53.2286 48.334 52.0602 48.334H51.0681L49.3155 45.6886L53.8789 39.7363H44.8183V35.4705H59.3682V39.2403ZM75.5359 44.0352V35.4705H79.8017V58.6182H75.5359V56.6672C74.2793 58.2765 72.4936 59.0811 70.1789 59.0811C67.9523 59.0811 66.0454 58.2434 64.4581 56.5679C62.8929 54.8705 62.1103 52.7982 62.1103 50.3512C62.1103 47.9262 62.8929 45.8649 64.4581 44.1674C66.0454 42.4699 67.9523 41.6212 70.1789 41.6212C72.4936 41.6212 74.2793 42.4259 75.5359 44.0352ZM67.6657 53.7241C68.5696 54.5839 69.6718 55.0137 70.9725 55.0137C72.2952 55.0137 73.3865 54.5839 74.2462 53.7241C75.106 52.8423 75.5359 51.718 75.5359 50.3512C75.5359 48.9843 75.106 47.8711 74.2462 47.0113C73.3865 46.1295 72.2952 45.6886 70.9725 45.6886C69.6498 45.6886 68.5475 46.1295 67.6657 47.0113C66.8059 47.8711 66.376 48.9843 66.376 50.3512C66.376 51.718 66.8059 52.8423 67.6657 53.7241Z" fill="#0D0C10"/>
</svg>
